<svg id="svg" version="1.1" width="400" height="400" viewBox="0 0 400 400" xmlns="http://www.w3.org/2000/svg" xmlns:xlink="http://www.w3.org/1999/xlink" ><g id="svgg"><path id="path0" d="M123.200 115.990 C 98.911 120.509,93.325 153.584,114.699 166.326 C 131.646 176.428,152.950 163.219,152.965 142.600 C 152.977 126.028,138.554 113.133,123.200 115.990 M269.600 115.990 C 259.589 117.852,252.186 124.443,248.918 134.400 C 247.749 137.964,247.453 146.168,248.392 149.000 C 249.783 153.197,250.229 154.329,251.145 155.995 C 261.277 174.426,286.725 174.091,296.336 155.400 C 306.359 135.907,290.242 112.149,269.600 115.990 M121.320 128.656 C 128.338 132.251,125.889 142.800,118.035 142.800 C 110.677 142.800,108.122 133.119,114.369 128.910 C 116.023 127.794,119.398 127.671,121.320 128.656 M285.920 128.562 C 292.794 132.139,290.445 142.793,282.780 142.799 C 275.108 142.804,272.602 132.333,279.400 128.677 C 280.891 127.876,284.479 127.812,285.920 128.562 M123.547 149.017 C 125.969 151.055,125.521 155.084,122.681 156.816 C 117.879 159.744,113.337 152.281,117.747 148.709 C 119.098 147.615,122.068 147.772,123.547 149.017 M283.569 149.231 C 286.007 151.669,284.932 156.100,281.639 157.187 C 278.499 158.223,275.155 155.100,275.788 151.722 C 276.473 148.070,280.969 146.631,283.569 149.231 M194.063 239.231 C 159.644 243.695,162.551 299.046,197.200 298.962 C 225.761 298.893,235.582 257.726,210.580 242.880 C 206.882 240.684,199.113 238.419,196.800 238.863 C 196.690 238.884,195.458 239.050,194.063 239.231 " stroke="none" fill="#000000" fill-rule="evenodd"></path><path id="path1" d="M119.600 80.795 C 80.981 88.950,72.638 142.157,106.900 161.787 C 109.231 163.123,109.249 162.985,107.085 160.316 C 96.814 147.648,100.389 125.831,113.871 118.902 C 114.790 118.430,115.870 117.875,116.271 117.668 C 122.552 114.439,132.059 114.418,138.102 117.621 C 139.036 118.116,140.218 118.745,140.728 119.018 C 154.239 126.245,157.703 147.330,147.471 160.073 C 145.109 163.015,145.195 163.159,148.219 161.339 C 167.287 149.864,174.469 125.153,164.805 104.273 C 156.901 87.197,137.355 77.046,119.600 80.795 M266.802 80.633 C 228.149 87.678,218.747 141.037,252.581 161.343 C 255.587 163.147,255.698 163.000,253.429 160.215 C 246.203 151.342,245.196 139.288,250.806 128.800 C 252.435 125.755,257.780 120.160,260.271 118.893 C 261.190 118.426,262.270 117.875,262.671 117.668 C 269.258 114.281,278.191 114.366,284.915 117.880 C 285.529 118.201,286.497 118.705,287.067 119.001 C 288.242 119.611,291.854 122.616,292.783 123.757 C 293.123 124.173,293.873 125.073,294.451 125.757 C 301.915 134.583,301.609 150.634,293.793 160.230 C 291.537 163.000,291.552 163.095,294.022 161.723 C 313.546 150.879,321.192 124.377,310.803 103.557 C 302.487 86.892,284.338 77.437,266.802 80.633 M115.800 128.684 C 111.835 129.631,110.049 136.452,112.853 139.937 C 115.850 143.661,122.390 142.999,124.090 138.800 C 126.635 132.512,122.238 127.146,115.800 128.684 M280.400 128.689 C 274.742 130.815,274.555 139.863,280.126 141.973 C 287.444 144.746,292.826 135.419,287.056 129.964 C 285.576 128.565,282.366 127.950,280.400 128.689 M117.773 149.322 C 114.395 152.228,118.114 158.609,122.012 156.594 C 124.446 155.335,125.269 151.675,123.574 149.640 C 122.335 148.152,119.325 147.987,117.773 149.322 M278.324 148.671 C 277.354 148.927,275.874 152.162,276.211 153.289 C 277.745 158.423,283.803 158.074,284.307 152.822 C 284.628 149.483,282.043 147.690,278.324 148.671 " stroke="none" fill="#ffffff" fill-rule="evenodd"></path><path id="path2" d="M117.000 46.000 C 116.864 46.220,115.694 46.400,114.400 46.400 C 113.106 46.400,111.948 46.561,111.826 46.758 C 111.704 46.955,110.163 47.244,108.402 47.400 C 106.641 47.556,105.200 47.845,105.200 48.042 C 105.200 48.239,104.750 48.400,104.200 48.400 C 103.650 48.400,103.200 48.557,103.200 48.748 C 103.200 48.940,102.120 49.219,100.800 49.368 C 99.480 49.518,98.400 49.811,98.400 50.020 C 98.400 50.229,98.130 50.400,97.800 50.400 C 97.470 50.400,97.200 50.560,97.200 50.755 C 97.200 50.950,96.394 51.230,95.409 51.378 C 94.424 51.525,93.514 51.816,93.386 52.023 C 93.258 52.230,92.803 52.400,92.376 52.400 C 91.949 52.400,91.600 52.566,91.600 52.768 C 91.600 52.971,91.060 53.255,90.400 53.400 C 89.740 53.545,89.200 53.829,89.200 54.032 C 89.200 54.234,88.840 54.400,88.400 54.400 C 87.960 54.400,87.600 54.566,87.600 54.768 C 87.600 54.971,87.060 55.255,86.400 55.400 C 85.740 55.545,85.200 55.808,85.200 55.984 C 85.200 56.160,84.198 56.812,82.973 57.431 C 81.748 58.051,80.299 58.972,79.753 59.479 C 79.206 59.986,78.631 60.400,78.475 60.400 C 78.319 60.400,77.707 60.850,77.113 61.400 C 76.520 61.950,75.916 62.400,75.770 62.400 C 75.625 62.400,74.810 63.075,73.959 63.900 C 73.109 64.725,71.690 66.093,70.806 66.941 C 69.923 67.788,69.200 68.631,69.200 68.814 C 69.200 68.997,68.849 69.257,68.420 69.394 C 67.992 69.530,67.533 69.983,67.400 70.400 C 67.267 70.817,66.808 71.270,66.380 71.406 C 65.951 71.543,65.600 71.893,65.600 72.185 C 65.600 72.477,65.060 73.293,64.400 74.000 C 63.740 74.707,63.200 75.536,63.200 75.842 C 63.200 76.149,63.048 76.400,62.863 76.400 C 62.678 76.400,62.183 77.075,61.763 77.900 C 61.343 78.725,60.906 79.490,60.791 79.600 C 60.206 80.159,59.200 82.047,59.200 82.586 C 59.200 82.924,59.020 83.200,58.800 83.200 C 58.580 83.200,58.400 83.650,58.400 84.200 C 58.400 84.750,58.220 85.200,58.000 85.200 C 57.780 85.200,57.600 85.398,57.600 85.640 C 57.600 86.059,56.717 88.264,55.991 89.655 C 55.804 90.015,55.526 91.410,55.373 92.755 C 55.221 94.100,54.940 95.200,54.748 95.200 C 54.557 95.200,54.400 95.909,54.400 96.776 C 54.400 97.643,54.220 98.464,54.000 98.600 C 53.459 98.934,53.459 112.400,54.000 112.400 C 54.220 112.400,54.400 113.109,54.400 113.976 C 54.400 114.843,54.556 115.649,54.747 115.767 C 54.938 115.886,55.217 117.066,55.367 118.391 C 55.517 119.716,55.811 120.800,56.020 120.800 C 56.229 120.800,56.400 121.250,56.400 121.800 C 56.400 122.350,56.580 122.800,56.800 122.800 C 57.020 122.800,57.200 123.178,57.200 123.640 C 57.200 124.482,58.326 127.226,58.825 127.600 C 58.972 127.710,59.232 128.250,59.403 128.800 C 59.573 129.350,60.138 130.427,60.656 131.193 C 61.175 131.959,61.600 132.814,61.600 133.093 C 61.600 133.372,61.780 133.600,62.000 133.600 C 62.220 133.600,62.400 133.793,62.400 134.029 C 62.400 134.264,62.625 134.708,62.900 135.015 C 64.479 136.776,64.839 137.600,64.027 137.600 C 63.822 137.600,63.543 137.951,63.406 138.380 C 63.270 138.808,62.786 139.278,62.329 139.422 C 61.873 139.567,60.686 140.476,59.692 141.443 C 58.697 142.409,57.722 143.200,57.523 143.200 C 56.952 143.200,42.400 158.009,42.400 158.590 C 42.400 158.713,41.770 159.426,41.000 160.174 C 40.230 160.921,39.600 161.730,39.600 161.969 C 39.600 162.209,39.150 162.797,38.600 163.275 C 38.050 163.753,37.600 164.373,37.600 164.652 C 37.600 164.932,37.356 165.304,37.058 165.480 C 36.760 165.656,36.012 166.606,35.396 167.591 C 34.779 168.576,34.033 169.624,33.737 169.920 C 33.442 170.215,33.200 170.714,33.200 171.029 C 33.200 171.343,33.020 171.600,32.800 171.600 C 32.580 171.600,32.400 171.941,32.400 172.357 C 32.400 172.774,32.130 173.218,31.800 173.345 C 31.470 173.471,31.200 173.941,31.200 174.387 C 31.200 174.834,31.020 175.200,30.800 175.200 C 30.580 175.200,30.400 175.470,30.400 175.800 C 30.400 176.130,30.228 176.400,30.018 176.400 C 29.808 176.400,29.518 177.030,29.374 177.800 C 29.229 178.570,28.951 179.200,28.755 179.200 C 28.560 179.200,28.400 179.470,28.400 179.800 C 28.400 180.130,28.228 180.400,28.018 180.400 C 27.808 180.400,27.518 181.030,27.374 181.800 C 27.229 182.570,26.951 183.200,26.755 183.200 C 26.560 183.200,26.400 183.470,26.400 183.800 C 26.400 184.130,26.243 184.400,26.051 184.400 C 25.859 184.400,25.587 185.120,25.446 186.000 C 25.306 186.880,25.013 187.600,24.795 187.600 C 24.578 187.600,24.400 188.039,24.400 188.576 C 24.400 189.113,24.230 189.658,24.023 189.786 C 23.816 189.914,23.525 190.824,23.378 191.809 C 23.230 192.794,22.950 193.600,22.755 193.600 C 22.560 193.600,22.400 194.039,22.400 194.576 C 22.400 195.113,22.234 195.655,22.031 195.781 C 21.829 195.906,21.538 197.177,21.385 198.604 C 21.232 200.032,20.948 201.200,20.753 201.200 C 20.559 201.200,20.400 201.974,20.400 202.920 C 20.400 203.866,20.175 204.865,19.900 205.140 C 19.177 205.863,19.177 232.137,19.900 232.860 C 20.175 233.135,20.400 234.134,20.400 235.080 C 20.400 236.026,20.559 236.800,20.753 236.800 C 20.948 236.800,21.232 237.968,21.385 239.396 C 21.538 240.823,21.829 242.094,22.031 242.219 C 22.234 242.345,22.400 242.876,22.400 243.400 C 22.400 243.924,22.570 244.458,22.777 244.586 C 22.984 244.714,23.275 245.624,23.422 246.609 C 23.570 247.594,23.850 248.400,24.045 248.400 C 24.240 248.400,24.400 248.850,24.400 249.400 C 24.400 249.950,24.580 250.400,24.800 250.400 C 25.020 250.400,25.200 250.669,25.200 250.997 C 25.200 251.831,26.523 254.800,26.894 254.800 C 27.062 254.800,27.200 255.237,27.200 255.771 C 27.200 256.306,27.470 257.013,27.800 257.343 C 28.130 257.673,28.400 258.136,28.400 258.371 C 28.400 258.607,28.560 258.800,28.755 258.800 C 28.951 258.800,29.229 259.430,29.374 260.200 C 29.518 260.970,29.808 261.600,30.018 261.600 C 30.228 261.600,30.400 261.870,30.400 262.200 C 30.400 262.530,30.580 262.800,30.800 262.800 C 31.020 262.800,31.200 263.138,31.200 263.551 C 31.200 263.964,31.470 264.526,31.800 264.800 C 32.130 265.074,32.400 265.546,32.400 265.849 C 32.400 266.152,32.560 266.400,32.757 266.400 C 32.953 266.400,33.226 266.850,33.364 267.400 C 33.502 267.950,33.792 268.400,34.008 268.400 C 34.223 268.400,34.400 268.670,34.400 269.000 C 34.400 269.330,34.551 269.600,34.736 269.600 C 34.920 269.600,35.264 270.005,35.498 270.500 C 35.982 271.522,36.983 272.870,38.300 274.276 C 38.795 274.804,39.200 275.400,39.200 275.600 C 39.200 275.800,39.607 276.377,40.104 276.882 C 40.601 277.387,41.420 278.340,41.924 279.000 C 44.125 281.885,52.130 290.400,52.640 290.400 C 52.780 290.400,54.042 291.570,55.444 293.000 C 56.846 294.430,58.168 295.600,58.381 295.600 C 58.593 295.600,59.502 296.320,60.400 297.200 C 61.298 298.080,62.283 298.800,62.589 298.800 C 62.895 298.800,63.257 299.151,63.394 299.580 C 63.530 300.008,64.021 300.480,64.487 300.627 C 64.952 300.775,65.761 301.324,66.284 301.848 C 66.808 302.372,67.458 302.800,67.730 302.800 C 68.001 302.800,68.483 303.160,68.800 303.600 C 69.117 304.040,69.579 304.400,69.826 304.400 C 70.073 304.400,70.799 304.851,71.438 305.402 C 72.077 305.954,72.960 306.519,73.400 306.660 C 73.840 306.800,74.470 307.223,74.800 307.600 C 75.130 307.977,75.850 308.427,76.400 308.600 C 76.950 308.773,77.673 309.204,78.006 309.557 C 78.567 310.152,79.707 310.845,82.500 312.290 C 83.105 312.603,83.600 313.025,83.600 313.229 C 83.600 313.433,83.960 313.600,84.400 313.600 C 84.840 313.600,85.200 313.766,85.200 313.968 C 85.200 314.171,85.740 314.455,86.400 314.600 C 87.060 314.745,87.600 315.029,87.600 315.232 C 87.600 315.434,87.960 315.600,88.400 315.600 C 88.840 315.600,89.200 315.766,89.200 315.968 C 89.200 316.171,89.740 316.455,90.400 316.600 C 91.060 316.745,91.600 317.029,91.600 317.232 C 91.600 317.434,91.960 317.600,92.400 317.600 C 92.840 317.600,93.200 317.766,93.200 317.968 C 93.200 318.171,93.740 318.455,94.400 318.600 C 95.060 318.745,95.600 319.029,95.600 319.232 C 95.600 319.434,95.960 319.600,96.400 319.600 C 96.840 319.600,97.200 319.766,97.200 319.968 C 97.200 320.171,97.738 320.455,98.395 320.599 C 99.053 320.743,99.694 321.028,99.819 321.231 C 99.945 321.434,100.397 321.600,100.824 321.600 C 101.251 321.600,101.600 321.780,101.600 322.000 C 101.600 322.220,101.915 322.401,102.300 322.402 C 102.685 322.404,103.516 322.674,104.146 323.002 C 104.776 323.331,105.541 323.600,105.846 323.600 C 106.151 323.600,106.400 323.778,106.400 323.995 C 106.400 324.213,107.120 324.506,108.000 324.646 C 108.880 324.787,109.600 325.059,109.600 325.251 C 109.600 325.443,109.960 325.600,110.400 325.600 C 110.840 325.600,111.200 325.757,111.200 325.949 C 111.200 326.141,111.920 326.413,112.800 326.554 C 113.680 326.694,114.400 326.987,114.400 327.205 C 114.400 327.422,114.929 327.600,115.576 327.600 C 116.223 327.600,116.854 327.763,116.977 327.963 C 117.100 328.162,118.101 328.449,119.200 328.600 C 120.300 328.751,121.200 329.038,121.200 329.238 C 121.200 329.437,121.650 329.600,122.200 329.600 C 122.750 329.600,123.200 329.763,123.200 329.962 C 123.200 330.162,124.100 330.449,125.200 330.600 C 126.300 330.751,127.200 331.038,127.200 331.238 C 127.200 331.437,127.650 331.600,128.200 331.600 C 128.750 331.600,129.200 331.766,129.200 331.968 C 129.200 332.171,130.370 332.462,131.800 332.615 C 133.230 332.768,134.400 333.052,134.400 333.247 C 134.400 333.441,135.030 333.600,135.800 333.600 C 136.570 333.600,137.200 333.766,137.200 333.968 C 137.200 334.171,138.370 334.462,139.800 334.615 C 141.230 334.768,142.400 335.052,142.400 335.247 C 142.400 335.441,143.030 335.600,143.800 335.600 C 144.570 335.600,145.200 335.766,145.200 335.970 C 145.200 336.173,146.820 336.467,148.800 336.622 C 150.780 336.776,152.400 337.060,152.400 337.252 C 152.400 337.443,153.300 337.600,154.400 337.600 C 155.500 337.600,156.400 337.763,156.400 337.963 C 156.400 338.162,158.113 338.454,160.206 338.611 C 162.299 338.768,164.110 339.054,164.230 339.248 C 164.349 339.442,165.708 339.600,167.250 339.600 C 168.791 339.600,170.387 339.779,170.796 339.998 C 171.205 340.217,175.243 340.515,179.770 340.661 C 184.296 340.807,188.000 341.078,188.000 341.263 C 188.000 341.703,212.289 341.704,212.560 341.264 C 212.675 341.079,216.510 340.807,221.084 340.660 C 225.970 340.503,229.455 340.229,229.533 339.996 C 229.607 339.778,231.092 339.600,232.833 339.600 C 234.575 339.600,236.000 339.442,236.000 339.248 C 236.000 339.054,237.890 338.767,240.200 338.609 C 242.510 338.452,244.400 338.160,244.400 337.962 C 244.400 337.763,245.300 337.600,246.400 337.600 C 247.500 337.600,248.400 337.449,248.400 337.264 C 248.400 337.080,249.885 336.731,251.700 336.488 C 256.009 335.913,257.709 335.571,258.204 335.180 C 258.426 335.005,259.731 334.734,261.104 334.579 C 262.477 334.424,263.600 334.140,263.600 333.948 C 263.600 333.757,264.129 333.600,264.776 333.600 C 265.423 333.600,266.053 333.438,266.176 333.239 C 266.298 333.041,267.479 332.753,268.800 332.600 C 270.121 332.447,271.302 332.159,271.424 331.961 C 271.547 331.762,272.087 331.600,272.624 331.600 C 273.161 331.600,273.600 331.437,273.600 331.238 C 273.600 331.038,274.500 330.751,275.600 330.600 C 276.700 330.449,277.600 330.162,277.600 329.962 C 277.600 329.763,278.050 329.600,278.600 329.600 C 279.150 329.600,279.600 329.437,279.600 329.238 C 279.600 329.038,280.500 328.751,281.600 328.600 C 282.700 328.449,283.600 328.162,283.600 327.962 C 283.600 327.763,284.050 327.600,284.600 327.600 C 285.150 327.600,285.600 327.440,285.600 327.245 C 285.600 327.050,286.410 326.769,287.400 326.621 C 288.390 326.472,289.200 326.182,289.200 325.975 C 289.200 325.769,289.560 325.600,290.000 325.600 C 290.440 325.600,290.800 325.431,290.800 325.225 C 290.800 325.018,291.610 324.728,292.600 324.579 C 293.590 324.431,294.400 324.150,294.400 323.955 C 294.400 323.760,294.670 323.600,295.000 323.600 C 295.330 323.600,295.600 323.443,295.600 323.251 C 295.600 323.059,296.320 322.787,297.200 322.646 C 298.080 322.506,298.800 322.213,298.800 321.995 C 298.800 321.778,299.149 321.600,299.576 321.600 C 300.003 321.600,300.451 321.440,300.572 321.245 C 300.693 321.050,301.423 320.772,302.196 320.627 C 302.968 320.482,303.600 320.192,303.600 319.982 C 303.600 319.772,303.870 319.600,304.200 319.600 C 304.530 319.600,304.800 319.420,304.800 319.200 C 304.800 318.980,305.056 318.800,305.369 318.800 C 305.943 318.800,312.429 315.633,312.800 315.172 C 312.910 315.035,313.529 314.793,314.176 314.635 C 314.823 314.476,315.633 314.044,315.976 313.673 C 316.319 313.303,317.275 312.657,318.100 312.237 C 318.925 311.817,319.600 311.322,319.600 311.137 C 319.600 310.952,319.938 310.800,320.351 310.800 C 320.764 310.800,321.300 310.562,321.542 310.270 C 321.784 309.979,322.976 309.237,324.191 308.622 C 325.406 308.008,326.400 307.366,326.400 307.196 C 326.400 307.026,326.850 306.774,327.400 306.636 C 327.950 306.498,328.400 306.208,328.400 305.992 C 328.400 305.777,328.670 305.600,329.000 305.600 C 329.330 305.600,329.600 305.461,329.600 305.291 C 329.600 305.121,330.230 304.643,331.000 304.228 C 331.770 303.813,332.400 303.334,332.400 303.164 C 332.400 302.993,332.798 302.728,333.285 302.573 C 333.771 302.419,334.505 301.866,334.914 301.346 C 335.323 300.826,335.833 300.400,336.047 300.400 C 336.261 300.400,336.886 299.950,337.436 299.400 C 337.986 298.850,338.575 298.400,338.745 298.400 C 338.914 298.400,339.992 297.545,341.139 296.500 C 342.286 295.455,343.770 294.150,344.437 293.600 C 346.482 291.913,355.615 282.729,356.740 281.228 C 357.323 280.450,358.250 279.358,358.800 278.802 C 359.350 278.246,360.250 277.119,360.800 276.298 C 361.350 275.477,361.935 274.804,362.100 274.803 C 362.265 274.801,362.400 274.596,362.400 274.346 C 362.400 274.096,362.850 273.475,363.400 272.965 C 363.950 272.455,364.400 271.779,364.400 271.462 C 364.400 271.145,364.670 270.782,365.000 270.655 C 365.330 270.529,365.600 270.079,365.600 269.655 C 365.600 269.232,365.873 268.781,366.206 268.653 C 366.539 268.525,366.989 268.011,367.205 267.510 C 367.658 266.461,368.487 265.092,368.846 264.800 C 368.981 264.690,369.228 264.164,369.395 263.631 C 369.562 263.098,370.027 262.308,370.429 261.877 C 370.831 261.445,371.273 260.576,371.412 259.946 C 371.550 259.316,371.787 258.800,371.937 258.800 C 372.285 258.800,373.600 255.792,373.600 254.997 C 373.600 254.669,373.780 254.400,374.000 254.400 C 374.220 254.400,374.406 254.085,374.413 253.700 C 374.420 253.315,374.690 252.651,375.013 252.224 C 375.336 251.796,375.600 251.031,375.600 250.524 C 375.600 250.016,375.780 249.600,376.000 249.600 C 376.220 249.600,376.400 249.150,376.400 248.600 C 376.400 248.050,376.574 247.600,376.786 247.600 C 376.999 247.600,377.292 246.700,377.438 245.600 C 377.584 244.500,377.839 243.600,378.006 243.600 C 378.173 243.600,378.405 243.105,378.522 242.500 C 378.639 241.895,378.925 240.680,379.158 239.800 C 379.390 238.920,379.585 237.615,379.590 236.900 C 379.596 236.185,379.762 235.600,379.960 235.600 C 380.318 235.600,380.443 234.856,381.163 228.400 C 382.032 220.622,381.361 205.746,379.999 202.600 C 379.809 202.160,379.539 200.768,379.399 199.506 C 379.259 198.245,378.977 197.109,378.772 196.983 C 378.567 196.856,378.400 196.223,378.400 195.576 C 378.400 194.929,378.237 194.400,378.038 194.400 C 377.838 194.400,377.551 193.500,377.400 192.400 C 377.249 191.300,376.962 190.400,376.762 190.400 C 376.563 190.400,376.400 189.950,376.400 189.400 C 376.400 188.850,376.236 188.400,376.035 188.400 C 375.834 188.400,375.549 187.680,375.400 186.800 C 375.251 185.920,374.966 185.200,374.765 185.200 C 374.564 185.200,374.400 184.840,374.400 184.400 C 374.400 183.960,374.220 183.600,374.000 183.600 C 373.780 183.600,373.600 183.335,373.600 183.010 C 373.600 182.431,370.505 175.991,370.039 175.600 C 369.907 175.490,369.442 174.680,369.004 173.800 C 368.566 172.920,368.102 172.110,367.974 172.000 C 367.845 171.890,367.399 171.215,366.984 170.500 C 366.568 169.785,366.086 169.200,365.914 169.200 C 365.741 169.200,365.600 168.834,365.600 168.387 C 365.600 167.941,365.330 167.471,365.000 167.345 C 364.670 167.218,364.400 166.907,364.400 166.653 C 364.400 166.399,363.950 165.707,363.400 165.113 C 362.850 164.520,362.400 163.924,362.400 163.789 C 362.400 163.654,362.175 163.292,361.900 162.985 C 360.815 161.776,360.400 161.223,360.400 160.990 C 360.400 160.856,359.809 160.173,359.086 159.473 C 358.363 158.773,357.169 157.425,356.434 156.477 C 354.881 154.476,346.280 145.817,344.417 144.378 C 343.720 143.840,342.429 142.734,341.547 141.921 L 339.945 140.442 340.873 139.135 C 341.383 138.417,342.205 137.374,342.700 136.819 C 343.195 136.263,343.600 135.581,343.600 135.304 C 343.600 135.027,343.783 134.800,344.006 134.800 C 344.230 134.800,344.725 134.125,345.106 133.300 C 345.488 132.475,346.026 131.561,346.303 131.268 C 346.965 130.569,349.087 126.101,349.423 124.700 C 349.568 124.095,349.847 123.600,350.043 123.600 C 350.240 123.600,350.400 123.186,350.400 122.680 C 350.400 122.174,350.561 121.589,350.758 121.380 C 351.145 120.968,351.888 118.077,352.345 115.198 C 352.503 114.207,352.774 113.165,352.949 112.883 C 353.442 112.084,353.332 97.972,352.828 97.468 C 352.593 97.233,352.400 96.444,352.400 95.715 C 352.400 94.986,352.241 94.077,352.047 93.695 C 351.681 92.974,350.902 90.213,350.526 88.300 C 350.407 87.695,350.150 87.200,349.955 87.200 C 349.760 87.200,349.600 86.913,349.600 86.562 C 349.600 86.211,349.330 85.401,349.000 84.762 C 348.670 84.123,348.098 83.015,347.729 82.300 C 346.522 79.959,346.203 79.403,345.954 79.200 C 345.819 79.090,345.581 78.595,345.427 78.100 C 345.272 77.605,344.978 77.200,344.773 77.200 C 344.568 77.200,344.400 76.973,344.400 76.696 C 344.400 76.419,343.950 75.707,343.400 75.113 C 342.850 74.520,342.400 73.924,342.400 73.789 C 342.400 73.654,342.175 73.303,341.900 73.010 C 341.625 72.717,340.590 71.519,339.600 70.349 C 337.575 67.956,334.774 65.200,334.366 65.200 C 334.218 65.200,333.374 64.525,332.491 63.700 C 330.278 61.633,328.840 60.449,327.986 59.992 C 327.588 59.779,327.020 59.379,326.724 59.103 C 326.244 58.655,325.145 57.996,322.600 56.629 C 322.160 56.393,321.710 56.092,321.600 55.961 C 321.287 55.586,316.138 53.200,315.643 53.200 C 315.399 53.200,315.200 53.020,315.200 52.800 C 315.200 52.580,314.840 52.400,314.400 52.400 C 313.960 52.400,313.600 52.220,313.600 52.000 C 313.600 51.780,313.222 51.600,312.760 51.600 C 311.990 51.600,310.041 50.884,308.291 49.958 C 307.901 49.751,306.772 49.471,305.780 49.335 C 304.789 49.199,303.882 48.933,303.765 48.744 C 303.648 48.555,303.124 48.400,302.600 48.400 C 302.076 48.400,301.545 48.235,301.421 48.034 C 301.296 47.833,299.846 47.541,298.197 47.387 C 296.549 47.232,295.200 46.963,295.200 46.787 C 295.200 45.977,270.240 45.200,269.454 45.986 C 269.226 46.214,267.996 46.400,266.720 46.400 C 265.444 46.400,264.400 46.561,264.400 46.758 C 264.400 46.955,262.959 47.244,261.198 47.400 C 259.437 47.556,257.896 47.845,257.774 48.042 C 257.652 48.239,257.113 48.400,256.576 48.400 C 256.039 48.400,255.600 48.559,255.600 48.754 C 255.600 48.949,254.610 49.232,253.400 49.383 C 252.190 49.534,251.200 49.825,251.200 50.029 C 251.200 50.233,250.750 50.400,250.200 50.400 C 249.650 50.400,249.200 50.558,249.200 50.750 C 249.200 50.943,248.616 51.217,247.903 51.359 C 246.288 51.682,244.400 52.502,244.400 52.880 C 244.400 53.036,243.770 53.282,243.000 53.426 C 242.230 53.571,241.600 53.849,241.600 54.045 C 241.600 54.240,241.330 54.400,241.000 54.400 C 240.670 54.400,240.400 54.580,240.400 54.800 C 240.400 55.020,240.202 55.200,239.960 55.200 C 239.330 55.200,236.695 56.477,236.071 57.085 C 235.781 57.368,235.286 57.600,234.971 57.600 C 234.657 57.600,234.400 57.780,234.400 58.000 C 234.400 58.220,234.207 58.400,233.971 58.400 C 233.736 58.400,233.292 58.625,232.985 58.900 C 231.774 59.986,231.223 60.400,230.988 60.400 C 230.853 60.400,230.492 60.625,230.185 60.900 C 229.060 61.909,228.430 62.400,228.259 62.400 C 228.004 62.400,224.110 65.977,222.652 67.551 C 221.963 68.294,220.545 69.782,219.500 70.856 C 218.455 71.931,217.600 72.969,217.600 73.163 C 217.600 73.357,217.060 74.093,216.400 74.800 C 215.740 75.507,215.200 76.336,215.200 76.642 C 215.200 76.949,215.020 77.200,214.800 77.200 C 214.580 77.200,214.400 77.470,214.400 77.800 C 214.400 78.130,214.223 78.400,214.008 78.400 C 213.792 78.400,213.502 78.850,213.364 79.400 C 213.226 79.950,212.953 80.400,212.757 80.400 C 212.560 80.400,212.400 80.670,212.400 81.000 C 212.400 81.330,212.240 81.600,212.045 81.600 C 211.849 81.600,211.571 82.230,211.426 83.000 C 211.282 83.770,211.036 84.400,210.880 84.400 C 210.466 84.400,209.596 86.513,209.327 88.170 C 209.200 88.957,208.939 89.600,208.748 89.600 C 208.556 89.600,208.400 90.050,208.400 90.600 C 208.400 91.150,208.243 91.600,208.052 91.600 C 207.860 91.600,207.581 92.680,207.432 94.000 L 207.160 96.400 203.436 96.400 L 199.712 96.400 199.479 94.143 C 199.351 92.902,199.056 91.696,198.823 91.463 C 198.590 91.230,198.400 90.637,198.400 90.144 C 198.400 89.651,198.240 89.149,198.045 89.028 C 197.850 88.907,197.576 88.200,197.437 87.455 C 197.297 86.711,196.737 85.224,196.193 84.151 C 195.649 83.078,195.203 81.975,195.202 81.700 C 195.201 81.425,195.020 81.200,194.800 81.200 C 194.580 81.200,194.400 80.930,194.400 80.600 C 194.400 80.270,194.247 80.000,194.061 80.000 C 193.874 80.000,193.394 79.274,192.994 78.386 C 192.593 77.498,191.865 76.339,191.374 75.810 C 190.884 75.281,190.419 74.682,190.341 74.480 C 189.712 72.840,183.717 66.567,179.800 63.452 C 178.260 62.227,176.623 60.880,176.161 60.459 C 175.700 60.037,174.935 59.570,174.461 59.419 C 173.988 59.269,173.600 58.978,173.600 58.773 C 173.600 58.568,173.330 58.400,173.000 58.400 C 172.670 58.400,172.400 58.223,172.400 58.008 C 172.400 57.792,171.950 57.502,171.400 57.364 C 170.850 57.226,170.398 56.998,170.395 56.857 C 170.393 56.715,169.628 56.243,168.695 55.806 C 167.763 55.369,166.910 54.910,166.800 54.785 C 166.485 54.428,163.727 53.200,163.240 53.200 C 162.998 53.200,162.800 53.020,162.800 52.800 C 162.800 52.580,162.350 52.400,161.800 52.400 C 161.250 52.400,160.800 52.236,160.800 52.035 C 160.800 51.834,160.080 51.549,159.200 51.400 C 158.320 51.251,157.600 50.966,157.600 50.765 C 157.600 50.564,157.150 50.400,156.600 50.400 C 156.050 50.400,155.600 50.237,155.600 50.038 C 155.600 49.838,154.700 49.551,153.600 49.400 C 152.500 49.249,151.600 48.962,151.600 48.762 C 151.600 48.563,151.071 48.400,150.424 48.400 C 149.777 48.400,149.149 48.241,149.029 48.048 C 148.910 47.854,147.459 47.568,145.806 47.413 C 144.153 47.258,142.800 46.967,142.800 46.766 C 142.800 46.565,141.641 46.400,140.224 46.400 C 138.807 46.400,137.536 46.220,137.400 46.000 C 137.246 45.751,133.404 45.600,127.200 45.600 C 120.996 45.600,117.154 45.751,117.000 46.000 M133.800 80.585 C 172.645 87.506,182.179 140.902,148.219 161.339 C 145.195 163.159,145.109 163.015,147.471 160.073 C 157.703 147.330,154.239 126.245,140.728 119.018 C 140.218 118.745,139.036 118.116,138.102 117.621 C 132.059 114.418,122.552 114.439,116.271 117.668 C 115.870 117.875,114.790 118.430,113.871 118.902 C 100.389 125.831,96.814 147.648,107.085 160.316 C 109.249 162.985,109.231 163.123,106.900 161.787 C 85.290 149.406,78.698 120.340,92.681 99.093 C 101.861 85.145,118.177 77.801,133.800 80.585 M280.089 80.613 C 299.300 83.973,313.091 99.066,315.260 119.102 C 317.107 136.161,308.329 153.777,294.022 161.723 C 291.552 163.095,291.537 163.000,293.793 160.230 C 301.609 150.634,301.915 134.583,294.451 125.757 C 293.873 125.073,293.123 124.173,292.783 123.757 C 291.854 122.616,288.242 119.611,287.067 119.001 C 286.497 118.705,285.529 118.201,284.915 117.880 C 278.191 114.366,269.258 114.281,262.671 117.668 C 262.270 117.875,261.190 118.426,260.271 118.893 C 257.780 120.160,252.435 125.755,250.806 128.800 C 245.196 139.288,246.203 151.342,253.429 160.215 C 255.698 163.000,255.587 163.147,252.581 161.343 C 228.620 146.962,224.541 112.287,244.466 92.362 C 254.050 82.778,267.364 78.387,280.089 80.613 M134.200 116.612 C 150.216 121.437,157.934 140.624,149.883 155.600 C 136.745 180.038,101.653 170.593,101.535 142.587 C 101.459 124.773,117.898 111.701,134.200 116.612 M281.247 116.845 C 296.784 121.938,304.027 140.443,296.336 155.400 C 286.725 174.091,261.277 174.426,251.145 155.995 C 250.229 154.329,249.783 153.197,248.392 149.000 C 247.453 146.168,247.749 137.964,248.918 134.400 C 253.556 120.268,267.909 112.474,281.247 116.845 M114.369 128.910 C 108.122 133.119,110.677 142.800,118.035 142.800 C 124.546 142.800,127.815 135.542,123.581 130.484 C 121.403 127.881,117.009 127.130,114.369 128.910 M279.400 128.677 C 272.602 132.333,275.108 142.804,282.780 142.799 C 290.445 142.793,292.794 132.139,285.920 128.562 C 284.479 127.812,280.891 127.876,279.400 128.677 M121.062 129.056 C 127.642 132.179,125.287 142.400,117.988 142.400 C 110.772 142.400,108.850 130.344,115.800 128.684 C 117.521 128.273,119.742 128.430,121.062 129.056 M284.706 128.641 C 289.149 129.530,291.050 136.449,287.844 140.064 C 283.554 144.901,275.974 141.947,276.009 135.451 C 276.035 130.568,279.759 127.652,284.706 128.641 M117.747 148.709 C 113.337 152.281,117.879 159.744,122.681 156.816 C 125.521 155.084,125.969 151.055,123.547 149.017 C 122.068 147.772,119.098 147.615,117.747 148.709 M277.199 149.140 C 273.756 152.583,277.120 158.679,281.639 157.187 C 284.932 156.100,286.007 151.669,283.569 149.231 C 281.833 147.494,278.886 147.452,277.199 149.140 M123.574 149.640 C 125.269 151.675,124.446 155.335,122.012 156.594 C 118.114 158.609,114.395 152.228,117.773 149.322 C 119.325 147.987,122.335 148.152,123.574 149.640 M283.280 149.618 C 286.404 152.742,282.605 158.568,278.746 156.572 C 275.778 155.037,275.478 149.422,278.324 148.671 C 280.458 148.108,282.080 148.418,283.280 149.618 M199.800 239.193 C 234.524 243.757,232.126 298.877,197.200 298.962 C 162.551 299.046,159.644 243.695,194.063 239.231 C 195.458 239.050,196.690 238.884,196.800 238.863 C 196.910 238.842,198.260 238.990,199.800 239.193 " stroke="none" fill="#7abc4f" fill-rule="evenodd"></path></g></svg>